<svg xmlns="http://www.w3.org/2000/svg" width="87" height="87" viewBox="0 0 87 87" fill="none"><g clip-path="url(#clip0_48_1210)"><path d="M69.6906 40.1832C69.2194 40.1832 68.73 40.1832 68.2588 40.2014C68.295 39.5307 68.3313 38.8782 68.3313 38.2076V13.5214C68.3313 12.7782 67.715 12.162 66.9719 12.162C46.8713 12.162 35.6881 1.41386 35.5794 1.30511C35.0538 0.779482 34.2019 0.779482 33.6763 1.30511C33.5675 1.41386 22.3844 12.162 2.28375 12.162C1.54063 12.162 0.924377 12.7782 0.924377 13.5214V38.2076C0.924377 53.9582 8.42813 66.1926 23.2181 74.5664V80.2576C23.2181 84.2632 31.7188 86.0939 39.6213 86.0939C45.6206 86.0939 51.9644 85.0426 54.665 82.777C57.3656 85.0426 63.7094 86.0939 69.7088 86.0939C77.6113 86.0939 86.1119 84.2632 86.1119 80.2576V72.627H86.0938C86.0575 71.5576 85.4231 70.597 84.2088 69.7995C85.3869 69.002 86.0938 68.0414 86.0938 66.8995V59.2689H86.0756C86.0394 58.1995 85.405 57.2389 84.2088 56.4414C85.3869 55.6439 86.0938 54.6832 86.0938 53.5414V45.9107H86.0756C85.9306 41.9776 77.5206 40.1832 69.6906 40.1832ZM39.6031 56.2601C48.4119 56.2601 53.2513 58.4714 53.2875 59.3776C53.2331 60.2839 48.3756 62.4951 39.6031 62.4951C30.8306 62.4951 25.9731 60.2839 25.9188 59.3776C25.955 58.4714 30.8125 56.2601 39.6031 56.2601ZM25.9188 62.767C29.0544 64.4164 34.4556 65.1957 39.6031 65.1957C44.7506 65.1957 50.1519 64.4164 53.2875 62.767V66.8995C53.2331 67.8057 48.3756 70.017 39.6031 70.017C30.8306 70.017 25.9731 67.8057 25.9188 66.8995V62.767ZM28.2569 71.2495C31.3925 72.2464 35.5794 72.7176 39.6031 72.7176C43.6269 72.7176 47.8138 72.2464 50.9494 71.2495C52.8163 71.9564 53.2694 72.6089 53.2875 72.7357C53.2513 73.642 48.4119 75.8532 39.6031 75.8532C30.7944 75.8532 25.955 73.642 25.9188 72.7357C25.9369 72.6089 26.39 71.9564 28.2569 71.2495ZM54.6469 70.1982C54.4838 70.0532 54.3206 69.9264 54.1213 69.7995C54.3025 69.6726 54.4838 69.5457 54.6469 69.4189C54.81 69.5457 54.9913 69.6726 55.1725 69.7995C54.9913 69.9264 54.81 70.0714 54.6469 70.1982ZM56.0063 66.8995V62.767C59.1419 64.4164 64.5431 65.1957 69.6906 65.1957C74.8381 65.1957 80.2394 64.4164 83.375 62.767V66.8995C83.3206 67.8057 78.4631 70.017 69.6906 70.017C60.9181 70.017 56.0606 67.8057 56.0063 66.8995ZM56.0063 53.5232V49.3907C59.1419 51.0401 64.5431 51.8195 69.6906 51.8195C74.8381 51.8195 80.2394 51.0401 83.375 49.3907V53.5232C83.3388 54.4295 78.4994 56.6407 69.6906 56.6407C60.8819 56.6407 56.0425 54.4295 56.0063 53.5232ZM83.375 46.0014C83.3388 46.9076 78.4994 49.1189 69.6906 49.1189C60.8819 49.1189 56.0425 46.9076 56.0063 46.0014C56.0606 45.0951 60.9181 42.8839 69.6906 42.8839C78.4631 42.902 83.3206 45.0951 83.375 46.0014ZM3.625 38.2076V14.8626C20.8981 14.482 31.5013 6.72448 34.6188 4.09636C37.7363 6.74261 48.3213 14.482 65.6125 14.8626V38.2076C65.6125 38.9326 65.5763 39.6395 65.54 40.3464C59.1419 40.872 53.4325 42.6664 53.3056 45.9107H53.2875V53.5414C53.2875 54.6832 53.9944 55.6439 55.1725 56.4414C54.9731 56.5682 54.7919 56.7132 54.6287 56.8582C51.91 54.6107 45.5844 53.5595 39.6031 53.5595C31.7731 53.5595 23.3631 55.3539 23.2181 59.287H23.2V66.9176C23.2 68.0595 23.9069 69.0201 25.085 69.8176C24.2875 70.3432 23.7438 70.9414 23.4538 71.5939C10.3131 63.7276 3.625 52.5264 3.625 38.2076ZM39.6031 83.3751C30.7944 83.3751 25.955 81.1638 25.9188 80.2576V76.1251C29.0544 77.7745 34.4556 78.5539 39.6031 78.5539C44.7506 78.5539 50.1519 77.7745 53.2875 76.1251V80.2576C53.2513 81.1638 48.4119 83.3751 39.6031 83.3751ZM69.6906 83.3751C60.8819 83.3751 56.0425 81.1638 56.0063 80.2576V76.1251C59.1419 77.7745 64.5431 78.5539 69.6906 78.5539C74.8381 78.5539 80.2394 77.7745 83.375 76.1251V80.2576C83.3388 81.1638 78.4994 83.3751 69.6906 83.3751ZM83.375 72.7357C83.3388 73.642 78.4994 75.8532 69.6906 75.8532C60.8819 75.8532 56.0425 73.642 56.0063 72.7357C56.0063 72.6089 56.4775 71.9564 58.3444 71.2495C61.48 72.2464 65.6669 72.7176 69.6906 72.7176C73.7144 72.7176 77.9013 72.2464 81.0369 71.2495C82.9038 71.9564 83.3569 72.6089 83.375 72.7357ZM83.375 59.3776C83.3206 60.2839 78.4631 62.4951 69.6906 62.4951C60.9181 62.4951 56.0606 60.2839 56.0063 59.3776C56.0063 59.2507 56.4775 58.5982 58.3444 57.8914C61.48 58.8882 65.6669 59.3776 69.6906 59.3776C73.7325 59.3776 77.9013 58.9064 81.0369 57.8914C82.94 58.5982 83.375 59.2689 83.375 59.3776Z" fill="#002236"></path><path d="M9.96875 19.5388H7.25V38.1894C7.25 44.7326 8.7725 50.5688 11.7631 55.5894L14.1013 54.1938C11.31 49.5538 9.96875 44.3157 9.96875 38.1894V19.5388Z" fill="#EB0F20"></path><path d="M59.2687 38.2074H61.9875V19.5386C61.9875 18.8499 61.4619 18.2518 60.7731 18.1793C48.9556 16.983 40.455 12.6149 35.3981 9.17114L33.8575 11.4186C39.005 14.9349 47.5237 19.3393 59.2687 20.753V38.2074Z" fill="#EB0F20"></path></g><defs><clipPath id="clip0_48_1210"><rect width="87" height="87" fill="white"></rect></clipPath></defs></svg>