<svg xmlns="http://www.w3.org/2000/svg" xmlns:xlink="http://www.w3.org/1999/xlink" xmlns:svgjs="http://svgjs.dev/svgjs" id="Outline" viewBox="0 0 24 24" width="300" height="300"><g width="100%" height="100%" transform="matrix(1,0,0,1,0,0)"><path d="M23.707.293h0a1,1,0,0,0-1.414,0L12,10.586,1.707.293a1,1,0,0,0-1.414,0h0a1,1,0,0,0,0,1.414L10.586,12,.293,22.293a1,1,0,0,0,0,1.414h0a1,1,0,0,0,1.414,0L12,13.414,22.293,23.707a1,1,0,0,0,1.414,0h0a1,1,0,0,0,0-1.414L13.414,12,23.707,1.707A1,1,0,0,0,23.707.293Z" fill="#eb0f20" fill-opacity="1" data-original-color="#000000ff" stroke="none" stroke-opacity="1"></path></g></svg>