<svg xmlns="http://www.w3.org/2000/svg" xmlns:xlink="http://www.w3.org/1999/xlink" xmlns:svgjs="http://svgjs.dev/svgjs" height="300" viewBox="-58 0 476 476" width="300"><g width="100%" height="100%" transform="matrix(1,0,0,1,0,0)"><path d="m250.15625 3.09375c-1.878906-1.957031-4.464844-3.0703125-7.175781-3.09375h-192.75c-27.667969.0703125-50.101563 22.449219-50.230469 50.117188v375.765624c.128906 27.667969 22.5625 50.046876 50.230469 50.117188h259.539062c27.667969-.070312 50.101563-22.449219 50.230469-50.117188v-305.75c-.042969-2.625-1.09375-5.132812-2.941406-7zm2.84375 31.683594 73.125 75.222656h-63.144531c-2.636719.027344-5.171875-1-7.046875-2.855469-1.875-1.851562-2.929688-4.378906-2.933594-7.011719zm56.769531 421.222656h-259.539062c-16.628907-.054688-30.113281-13.488281-30.230469-30.117188v-375.765624c.117188-16.628907 13.601562-30.0625 30.230469-30.117188h182.769531v80.132812c.007812 7.9375 3.171875 15.546876 8.796875 21.148438 5.625 5.605469 13.246094 8.738281 21.183594 8.71875h77.019531v295.882812c-.117188 16.628907-13.601562 30.0625-30.230469 30.117188zm0 0" fill="#eb0f20" fill-opacity="1" data-original-color="#000000ff" stroke="none" stroke-opacity="1"></path><path d="m63.308594 220h113.382812c5.523438 0 10-4.476562 10-10s-4.476562-10-10-10h-113.382812c-5.523438 0-10 4.476562-10 10s4.476562 10 10 10zm0 0" fill="#eb0f20" fill-opacity="1" data-original-color="#000000ff" stroke="none" stroke-opacity="1"></path><path d="m296.691406 243h-233.382812c-5.523438 0-10 4.476562-10 10s4.476562 10 10 10h233.382812c5.523438 0 10-4.476562 10-10s-4.476562-10-10-10zm0 0" fill="#eb0f20" fill-opacity="1" data-original-color="#000000ff" stroke="none" stroke-opacity="1"></path><path d="m296.691406 286h-233.382812c-5.523438 0-10 4.476562-10 10s4.476562 10 10 10h233.382812c5.523438 0 10-4.476562 10-10s-4.476562-10-10-10zm0 0" fill="#eb0f20" fill-opacity="1" data-original-color="#000000ff" stroke="none" stroke-opacity="1"></path><path d="m296.691406 329h-233.382812c-5.523438 0-10 4.476562-10 10s4.476562 10 10 10h233.382812c5.523438 0 10-4.476562 10-10s-4.476562-10-10-10zm0 0" fill="#eb0f20" fill-opacity="1" data-original-color="#000000ff" stroke="none" stroke-opacity="1"></path></g></svg>