<svg xmlns="http://www.w3.org/2000/svg" width="36" height="36" viewBox="0 0 36 36" fill="none"><mask id="mask0_100_3" style="mask-type:luminance" maskUnits="userSpaceOnUse" x="0" y="0" width="36" height="36"><path d="M35.5 35.5V0.5H0.5V35.5H35.5Z" fill="white" stroke="white"></path></mask><g mask="url(#mask0_100_3)"><path d="M10.1091 21.9455C10.1091 23.5019 8.84734 24.7637 7.2909 24.7637C5.73454 24.7637 4.47278 23.5019 4.47278 21.9455C4.47278 20.389 5.73454 19.1273 7.2909 19.1273C8.84734 19.1273 10.1091 20.389 10.1091 21.9455Z" stroke="#EB0F20" stroke-miterlimit="10" stroke-linecap="round" stroke-linejoin="round"></path><path d="M10.1091 22.5088H26.4545" stroke="#EB0F20" stroke-miterlimit="10" stroke-linecap="round" stroke-linejoin="round"></path><path d="M7.68947 21.5467L6.89233 22.3438" stroke="#EB0F20" stroke-miterlimit="10" stroke-linecap="round" stroke-linejoin="round"></path><path d="M32.0908 21.9455C32.0908 23.5019 30.829 24.7637 29.2726 24.7637C27.7162 24.7637 26.4545 23.5019 26.4545 21.9455C26.4545 20.389 27.7162 19.1273 29.2726 19.1273C30.829 19.1273 32.0908 20.389 32.0908 21.9455Z" stroke="#EB0F20" stroke-miterlimit="10" stroke-linecap="round" stroke-linejoin="round"></path><path d="M28.8741 21.5467L29.6712 22.3438" stroke="#EB0F20" stroke-miterlimit="10" stroke-linecap="round" stroke-linejoin="round"></path><path d="M4.47279 21.9452L1.97916 21.589C1.14609 21.4699 0.527344 20.7565 0.527344 19.915V16.0847C0.527344 15.4973 0.71093 14.9246 1.0523 14.4467L2.67117 12.1802C3.09438 11.5878 3.77761 11.2361 4.50577 11.2361H17.5572C18.9507 11.2361 20.3153 11.6335 21.491 12.3817L25.8908 15.1816C25.8908 15.1816 31.0004 15.1816 34.1878 16.662C34.9771 17.0286 35.4727 17.8295 35.4727 18.6998V21.3815C35.4726 22.0041 34.9679 22.5088 34.3453 22.5088" stroke="#EB0F20" stroke-miterlimit="10" stroke-linecap="round" stroke-linejoin="round"></path><path d="M25.8908 15.1816H4.8804C4.44762 15.1816 4.17629 14.7141 4.39102 14.3384L6.16367 11.2362" stroke="#EB0F20" stroke-miterlimit="10" stroke-linecap="round" stroke-linejoin="round"></path><path d="M12.3638 20.2539H24.2" stroke="#EB0F20" stroke-miterlimit="10" stroke-linecap="round" stroke-linejoin="round"></path><path d="M0.527344 16.8726H1.65459" stroke="#EB0F20" stroke-miterlimit="10" stroke-linecap="round" stroke-linejoin="round"></path><path d="M33.7816 18H35.1437" stroke="#EB0F20" stroke-miterlimit="10" stroke-linecap="round" stroke-linejoin="round"></path><path d="M10.1091 15.1816V11.2362" stroke="#EB0F20" stroke-miterlimit="10" stroke-linecap="round" stroke-linejoin="round"></path><path d="M15.7455 11.2362L16.3091 15.1816" stroke="#EB0F20" stroke-miterlimit="10" stroke-linecap="round" stroke-linejoin="round"></path></g></svg>