<svg xmlns="http://www.w3.org/2000/svg" width="36" height="16" viewBox="0 0 36 16" fill="none"><path d="M10.1091 11.9455C10.1091 13.5019 8.84734 14.7637 7.2909 14.7637C5.73454 14.7637 4.47278 13.5019 4.47278 11.9455C4.47278 10.389 5.73454 9.12728 7.2909 9.12728C8.84734 9.12728 10.1091 10.389 10.1091 11.9455Z" stroke="#EB0F20" stroke-miterlimit="10" stroke-linecap="round" stroke-linejoin="round"></path><path d="M10.1091 12.5088H26.4545" stroke="#EB0F20" stroke-miterlimit="10" stroke-linecap="round" stroke-linejoin="round"></path><path d="M7.68947 11.5467L6.89233 12.3438" stroke="#EB0F20" stroke-miterlimit="10" stroke-linecap="round" stroke-linejoin="round"></path><path d="M32.0908 11.9455C32.0908 13.5019 30.829 14.7637 29.2726 14.7637C27.7162 14.7637 26.4545 13.5019 26.4545 11.9455C26.4545 10.389 27.7162 9.12728 29.2726 9.12728C30.829 9.12728 32.0908 10.389 32.0908 11.9455Z" stroke="#EB0F20" stroke-miterlimit="10" stroke-linecap="round" stroke-linejoin="round"></path><path d="M28.8741 11.5467L29.6712 12.3438" stroke="#EB0F20" stroke-miterlimit="10" stroke-linecap="round" stroke-linejoin="round"></path><path d="M4.47279 11.9452L1.97916 11.589C1.14609 11.4699 0.527344 10.7565 0.527344 9.91503V6.08469C0.527344 5.4973 0.71093 4.9246 1.0523 4.44669L2.67117 2.18024C3.09438 1.58778 3.77761 1.23615 4.50577 1.23615H17.5572C18.9507 1.23615 20.3153 1.63348 21.491 2.38168L25.8908 5.18159C25.8908 5.18159 31.0004 5.18159 34.1878 6.66202C34.9771 7.02856 35.4727 7.82949 35.4727 8.69975V11.3815C35.4726 12.0041 34.9679 12.5088 34.3453 12.5088" stroke="#EB0F20" stroke-miterlimit="10" stroke-linecap="round" stroke-linejoin="round"></path><path d="M25.8908 5.18164H4.8804C4.44762 5.18164 4.17629 4.71413 4.39102 4.33838L6.16367 1.2362" stroke="#EB0F20" stroke-miterlimit="10" stroke-linecap="round" stroke-linejoin="round"></path><path d="M12.3638 10.2539H24.2" stroke="#EB0F20" stroke-miterlimit="10" stroke-linecap="round" stroke-linejoin="round"></path><path d="M0.527344 6.87256H1.65459" stroke="#EB0F20" stroke-miterlimit="10" stroke-linecap="round" stroke-linejoin="round"></path><path d="M33.7816 8H35.1437" stroke="#EB0F20" stroke-miterlimit="10" stroke-linecap="round" stroke-linejoin="round"></path><path d="M10.1091 5.18164V1.2362" stroke="#EB0F20" stroke-miterlimit="10" stroke-linecap="round" stroke-linejoin="round"></path><path d="M15.7455 1.2362L16.3091 5.18164" stroke="#EB0F20" stroke-miterlimit="10" stroke-linecap="round" stroke-linejoin="round"></path></svg>