<svg xmlns="http://www.w3.org/2000/svg" width="88" height="79" viewBox="0 0 88 79" fill="none"><path d="M33.0327 34.3252V31.595C33.0327 26.0762 29.6069 21.3576 24.7656 19.4497" stroke="#002236" stroke-width="2.5" stroke-miterlimit="10" stroke-linecap="round" stroke-linejoin="round"></path><path d="M10.2519 19.4556C5.41883 21.3674 2 26.082 2 31.5951V37.122" stroke="#002236" stroke-width="2.5" stroke-miterlimit="10" stroke-linecap="round" stroke-linejoin="round"></path><path d="M17.5164 22.3914C22.4532 22.3914 26.4552 18.3894 26.4552 13.4527V11.0967C26.4552 6.15996 22.4532 2.15796 17.5164 2.15796C12.5797 2.15796 8.5777 6.15996 8.5777 11.0967V13.4525C8.57753 18.3894 12.5797 22.3914 17.5164 22.3914Z" stroke="#002236" stroke-width="2.5" stroke-miterlimit="10" stroke-linecap="round" stroke-linejoin="round"></path><path d="M63.5074 2.15796H38.3094C36.3191 2.15796 34.7057 3.77137 34.7057 5.76166V16.5561C34.7057 18.5464 36.3191 20.1598 38.3094 20.1598H41.0071C41.6812 20.1598 42.2504 20.6601 42.3369 21.3285L42.9426 26.0063C43.0862 27.1146 44.4335 27.5829 45.2335 26.8026L51.6532 20.5408C51.9037 20.2964 52.2396 20.1598 52.5895 20.1598H82.8473C84.8376 20.1598 86.451 18.5464 86.451 16.5561V5.76166C86.451 3.77137 84.8376 2.15796 82.8473 2.15796H69.4545" stroke="#002236" stroke-width="2.5" stroke-miterlimit="10" stroke-linecap="round" stroke-linejoin="round"></path><path d="M41.9807 7.99829H79.1763" stroke="#EB0F20" stroke-width="2.5" stroke-miterlimit="10" stroke-linecap="round" stroke-linejoin="round"></path><path d="M41.9807 13.9297H70.2374" stroke="#EB0F20" stroke-width="2.5" stroke-miterlimit="10" stroke-linecap="round" stroke-linejoin="round"></path><path d="M63.4583 44.8342H54.1874" stroke="#002236" stroke-width="2.5" stroke-miterlimit="10" stroke-linecap="round" stroke-linejoin="round"></path><path d="M2 45.6732V36.6164C2 35.8679 2.60679 35.2612 3.35513 35.2612H85.0959C85.8444 35.2612 86.451 35.868 86.451 36.6164V43.479C86.451 44.2275 85.8442 44.8341 85.0959 44.8341H78.7879" stroke="#002236" stroke-width="2.5" stroke-miterlimit="10" stroke-linecap="round" stroke-linejoin="round"></path><path d="M78.1775 58.8692C83.0221 60.7754 86.4511 65.4958 86.4511 71.0172V74.989C86.4511 76.0123 85.6216 76.8418 84.5983 76.8418H57.2713C56.248 76.8418 55.4185 76.0123 55.4185 74.989V71.0172C55.4185 65.4895 58.8555 60.7643 63.7091 58.8625" stroke="#002236" stroke-width="2.5" stroke-miterlimit="10" stroke-linecap="round" stroke-linejoin="round"></path><path d="M70.9347 61.8136C65.998 61.8136 61.996 57.8116 61.996 52.8749V50.5191C61.996 45.5823 65.998 41.5803 70.9347 41.5803C75.8715 41.5803 79.8735 45.5823 79.8735 50.5191V52.8749C79.8736 57.8116 75.8715 61.8136 70.9347 61.8136Z" stroke="#002236" stroke-width="2.5" stroke-miterlimit="10" stroke-linecap="round" stroke-linejoin="round"></path><path d="M22.3544 41.5801H50.1418C52.132 41.5801 53.7455 43.1935 53.7455 45.1838V55.9782C53.7455 57.9685 52.132 59.5819 50.1418 59.5819H47.4439C46.7698 59.5819 46.2006 60.0822 46.1141 60.7507L45.5083 65.4284C45.3647 66.5367 44.0174 67.005 43.2174 66.2247L36.7978 59.9629C36.5473 59.7186 36.2114 59.5819 35.8615 59.5819H5.6037C3.61341 59.5819 2 57.9685 2 55.9782V45.1838C2 43.1935 3.61341 41.5801 5.6037 41.5801H16.5771" stroke="#002236" stroke-width="2.5" stroke-miterlimit="10" stroke-linecap="round" stroke-linejoin="round"></path><path d="M8.57751 47.2495H45.7731" stroke="#EB0F20" stroke-width="2.5" stroke-miterlimit="10" stroke-linecap="round" stroke-linejoin="round"></path><path d="M17.5164 53.1809H45.773" stroke="#EB0F20" stroke-width="2.5" stroke-miterlimit="10" stroke-linecap="round" stroke-linejoin="round"></path></svg>