<svg xmlns="http://www.w3.org/2000/svg" width="23" height="21" viewBox="0 0 23 21" fill="none"><rect x="0.5" y="0.5" width="22" height="20" rx="1.5" stroke="#D9D9D9"></rect><path d="M20.6229 5.37107C20.12 4.87631 19.3048 4.87631 18.8019 5.37107L10.0857 13.947L7.1981 11.1058C6.69524 10.6111 5.88 10.6111 5.37714 11.1058C4.87429 11.6006 4.87429 12.4027 5.37714 12.8975L9.17143 16.6307C9.50667 16.9606 9.99429 17.0805 10.4514 16.9456C10.5505 16.9156 10.6495 16.8781 10.741 16.8256C10.7562 16.8181 10.779 16.8031 10.7943 16.7881C10.8705 16.7432 10.9314 16.6832 10.9924 16.6232L20.6229 7.16272C21.1257 6.66796 21.1257 5.86584 20.6229 5.37107Z" fill="#19904B"></path></svg>