<svg xmlns="http://www.w3.org/2000/svg" width="55" height="55" viewBox="0 0 55 55" fill="none"><g clip-path="url(#clip0_48_1343)"><path d="M41.6167 6.09585L27.8667 0.0770161C27.6329 -0.025021 27.3671 -0.025021 27.1333 0.0770161L13.3833 6.09585C13.0494 6.24158 12.8335 6.5712 12.8333 6.93552V21.3272C12.8383 24.5615 14.3925 27.5976 17.0133 29.4928L26.5164 36.3468C27.1033 36.7716 27.8967 36.7716 28.4836 36.3468L37.9867 29.4938C40.6075 27.5985 42.1617 24.5624 42.1667 21.3281V6.93552C42.1665 6.5712 41.9506 6.24158 41.6167 6.09585ZM40.3333 21.3281C40.3291 23.9735 39.0578 26.4568 36.9142 28.0069L27.5 34.7967L18.0858 28.0069C15.9422 26.4568 14.6709 23.9735 14.6667 21.3281V7.53502L27.5 1.91768L40.3333 7.53502V21.3281Z" fill="#002236"></path><path d="M27.1333 4.07921L17.05 8.49388C16.7161 8.63961 16.5002 8.96923 16.5 9.33355V21.3281C16.5028 23.3848 17.4914 25.3155 19.1583 26.5201L26.9638 32.1503C27.2839 32.3813 27.7161 32.3813 28.0363 32.1503L35.8417 26.5201C37.5086 25.3155 38.4972 23.3848 38.5 21.3281V9.33355C38.4998 8.96923 38.2839 8.63961 37.95 8.49388L27.8667 4.07921C27.6329 3.97718 27.3671 3.97718 27.1333 4.07921ZM36.6667 9.93213V21.3281C36.6639 22.7958 35.9584 24.1733 34.7692 25.0333L27.5 30.2766L20.2308 25.0333C19.0416 24.1733 18.3361 22.7958 18.3333 21.3281V9.93213L27.5 5.91988L36.6667 9.93213Z" fill="#002236"></path><path d="M7.59459 30.4333L5.61184 25.8005C5.19019 24.8454 4.29101 24.1877 3.25302 24.0753C2.21502 23.9629 1.1959 24.4128 0.579557 25.2555C-0.0367901 26.0982 -0.15673 27.2058 0.264918 28.1609L3.85734 36.0635C4.34199 37.1333 5.01621 38.1066 5.84742 38.9363L11.4968 44.5867C11.1787 44.9239 11.001 45.3697 11 45.8333V53.1667C11 54.1792 11.8208 55 12.8333 55H22.9167C23.9292 55 24.75 54.1792 24.75 53.1667V45.8333C24.75 44.8208 23.9292 44 22.9167 44V42.2941C22.9448 40.1231 22.2365 38.0067 20.9073 36.2899C20.1281 35.265 19.0661 34.4904 17.8521 34.0615C15.9214 33.2503 14.1459 32.1109 12.6042 30.6937C11.1731 29.515 9.1401 29.4094 7.59459 30.4333ZM22.9167 53.1667H12.8333V45.8333H22.9167V53.1667ZM19.4764 37.4348C20.5449 38.8269 21.1112 40.5394 21.0833 42.2941V44H13.5034L7.14359 37.6402C6.46812 36.9657 5.92002 36.1747 5.52567 35.3054L1.93325 27.4028C1.77994 27.0655 1.80847 26.6735 2.009 26.3619C2.20953 26.0504 2.55459 25.862 2.92509 25.8619C3.36109 25.8616 3.75514 26.1217 3.92608 26.5228L5.97667 31.3051C6.52119 32.581 7.30606 33.7402 8.2885 34.7197L12.4758 38.9079C12.706 39.1462 13.0468 39.2418 13.3673 39.1579C13.6878 39.074 13.9381 38.8237 14.022 38.5032C14.1059 38.1827 14.0103 37.8419 13.772 37.6117L9.58467 33.4235C9.16361 33.0035 8.78503 32.5429 8.45442 32.0485C9.33473 31.3711 10.5663 31.3916 11.4235 32.098C13.1371 33.6706 15.1176 34.9247 17.2718 35.8013C18.1496 36.1205 18.9155 36.6881 19.4764 37.4348Z" fill="#002236"></path><path d="M20.1667 48.5834H19.25C18.7437 48.5834 18.3333 48.9938 18.3333 49.5C18.3333 50.0063 18.7437 50.4167 19.25 50.4167H20.1667C20.6729 50.4167 21.0833 50.0063 21.0833 49.5C21.0833 48.9938 20.6729 48.5834 20.1667 48.5834Z" fill="#002236"></path><path d="M51.1427 36.0635L54.7351 28.1609C55.1768 27.2026 55.0675 26.0805 54.4492 25.2254C53.8309 24.3702 52.7996 23.9149 51.751 24.0341C50.7025 24.1532 49.7997 24.8284 49.3891 25.8005L47.4109 30.4159C45.86 29.397 43.826 29.5086 42.3958 30.6909C40.8541 32.1081 39.0786 33.2476 37.1479 34.0588C35.9339 34.4877 34.8719 35.2623 34.0927 36.2872C32.7629 38.0047 32.0546 40.1222 32.0833 42.2941V44C31.0708 44 30.25 44.8208 30.25 45.8333V53.1667C30.25 54.1792 31.0708 55 32.0833 55H42.1667C43.1792 55 44 54.1792 44 53.1667V45.8333C43.999 45.3697 43.8213 44.9239 43.5032 44.5867L49.1526 38.9363C49.9838 38.1066 50.658 37.1333 51.1427 36.0635ZM42.1667 53.1667H32.0833V45.8333H42.1667V53.1667ZM41.4966 44H33.9167V42.2941C33.889 40.5398 34.4553 38.8276 35.5236 37.4358C36.0832 36.6895 36.8475 36.1217 37.7236 35.8013C39.8783 34.925 41.8591 33.6708 43.5728 32.098C44.4291 31.3863 45.6641 31.3623 46.5474 32.0403C46.2158 32.5383 45.8354 33.002 45.4117 33.4244L41.2243 37.6127C40.8769 37.9724 40.8819 38.5441 41.2355 38.8977C41.5891 39.2513 42.1608 39.2562 42.5205 38.9088L46.7078 34.7206C47.6903 33.7412 48.4751 32.5819 49.0197 31.306L51.0703 26.5228C51.2417 26.1223 51.6355 25.8626 52.0713 25.8628C52.4417 25.863 52.7868 26.0513 52.9873 26.3629C53.1879 26.6744 53.2164 27.0665 53.0631 27.4038L49.4707 35.3063C49.0763 36.1756 48.5282 36.9666 47.8527 37.6411L41.4966 44Z" fill="#002236"></path><path d="M35.75 48.5834H34.8333C34.3271 48.5834 33.9167 48.9938 33.9167 49.5C33.9167 50.0063 34.3271 50.4167 34.8333 50.4167H35.75C36.2563 50.4167 36.6667 50.0063 36.6667 49.5C36.6667 48.9938 36.2563 48.5834 35.75 48.5834Z" fill="#002236"></path><path d="M22.55 19.4333C22.145 19.1296 21.5704 19.2117 21.2667 19.6167C20.9629 20.0217 21.045 20.5962 21.45 20.9L25.1167 23.65C25.2753 23.769 25.4683 23.8333 25.6667 23.8333C25.7186 23.8332 25.7704 23.8289 25.8216 23.8205C26.0698 23.7779 26.2896 23.635 26.4293 23.4254L33.7627 12.4254C33.9444 12.1529 33.967 11.8042 33.8219 11.5106C33.6768 11.2169 33.3861 11.023 33.0593 11.0018C32.7324 10.9806 32.4191 11.1354 32.2373 11.4079L25.4412 21.6022L22.55 19.4333Z" fill="#EB0F20"></path></g><defs><clipPath id="clip0_48_1343"><rect width="55" height="55" fill="white"></rect></clipPath></defs></svg>