<svg xmlns="http://www.w3.org/2000/svg" width="80" height="81" viewBox="0 0 80 81" fill="none"><path d="M14.7176 1.52003C11.916 2.20884 9.4512 4.73444 8.8696 7.55123C8.6248 8.69923 8.6248 72.2904 8.8696 73.4392C9.4664 76.3328 12.0536 78.9192 14.9472 79.5168C16.0952 79.7616 63.9192 79.7616 65.0672 79.5168C68.4808 78.7976 71.3128 75.4144 71.3128 72.0312C71.3128 71.2968 70.8224 70.6992 70.1336 70.5616C69.72 70.4848 69.5672 70.5464 69.2 70.8984C68.848 71.2656 68.7408 71.5264 68.664 72.3072C68.4344 74.4048 66.9952 76.196 65.0664 76.7776C64.056 77.084 63.7656 77.084 39.624 77.0528L15.2072 77.0072L14.3504 76.5784C13.3248 76.0888 12.1768 74.9096 11.7176 73.8992L11.3808 73.18V40.4952V7.81203L11.8096 6.95444C12.2992 5.92883 13.4632 4.79604 14.4736 4.32164L15.208 3.98483H40.008H64.808L65.5424 4.32164C66.5528 4.79604 67.716 5.92883 68.2064 6.95444L68.6352 7.81203L68.712 37.556L68.7888 67.316L69.156 67.6064C69.508 67.8976 70.1512 67.9888 70.6256 67.8056C71.3448 67.5296 71.3144 68.816 71.3144 37.6016C71.3144 16.8432 71.2688 8.13284 71.1464 7.55123C70.5496 4.65763 67.9624 2.07124 65.0688 1.47364C63.8272 1.21364 15.7896 1.25924 14.7176 1.52003Z" fill="#002236"></path><path d="M16.9528 9.55679L16.5088 10.0008V20.9V31.8L16.9528 32.244L17.3968 32.688H40.0072H62.6176L63.0616 32.244L63.5056 31.8V20.9V9.99999L63.0616 9.55599L62.6176 9.11199H40.0072H17.3968L16.9528 9.55679ZM60.904 20.9V30.0856H40.008H19.112V20.9V11.7152H40.008H60.904V20.9Z" fill="#EB0F20"></path><path d="M25.036 17.1648C24.8064 17.2872 24.5464 17.5632 24.4696 17.7768C24.2704 18.2816 24.2704 23.5176 24.4696 24.0376C24.6384 24.4816 25.5256 24.9256 25.9544 24.772C26.1072 24.7264 26.3832 24.5424 26.5824 24.3744C26.904 24.068 26.9192 23.976 26.9192 20.8992C26.9192 17.8224 26.904 17.7304 26.5824 17.4088C26.092 16.9656 25.5408 16.8744 25.036 17.1648Z" fill="#002236"></path><path d="M39.0888 35.6881L38.7064 36.1017V44.7969V53.5073L26.6744 53.5377L14.6416 53.5833L14.2744 54.0121C13.8 54.5785 13.8 55.2521 14.2896 55.7265L14.6568 56.1089H26.6888H38.7056V64.8497V73.5905L39.1496 74.0345C39.7312 74.6161 40.2824 74.6161 40.864 74.0345L41.308 73.5905V64.8497V56.1089H53.3096C66.7352 56.1089 65.8624 56.1857 66.0464 55.0217C66.1232 54.5777 66.0616 54.3945 65.756 54.0265L65.3736 53.5825L53.3416 53.5369L41.3088 53.5065V44.7961V36.1017L40.9264 35.6881C40.6664 35.3969 40.4064 35.2897 40.008 35.2897C39.6096 35.2905 39.3496 35.3977 39.0888 35.6881Z" fill="#002236"></path><path d="M24.76 38.3368C24.3312 38.7808 24.316 38.8264 24.316 40.3272V41.8728H22.7392C21.2848 41.8728 21.132 41.9032 20.8256 42.2248C20.3512 42.7296 20.3816 43.5568 20.8872 44.0312C21.2392 44.3528 21.4384 44.3984 22.8008 44.4448L24.316 44.5064V45.9296C24.316 47.2464 24.3464 47.3992 24.7144 47.828C25.2192 48.44 25.9848 48.4864 26.536 47.92C26.888 47.5832 26.9184 47.4456 26.9184 46.0064V44.4752H28.296C29.8728 44.4752 30.516 44.2456 30.7608 43.6024C30.944 43.1128 30.8064 42.4232 30.4848 42.148C30.332 42.0256 29.628 41.9184 28.6176 41.8728L26.9952 41.796L26.9184 40.1424C26.8416 38.6264 26.8112 38.4432 26.4744 38.1832C25.9392 37.7552 25.296 37.816 24.76 38.3368Z" fill="#EB0F20"></path><path d="M49.9517 41.966C49.5389 42.2564 49.3549 43.114 49.5845 43.558C49.9821 44.3084 50.3805 44.354 54.8813 44.3084L59.0605 44.2628L59.4589 43.8956C59.9789 43.406 60.0101 42.5484 59.5045 42.074C59.1525 41.7372 59.0605 41.7372 54.7133 41.7372C50.9781 41.7364 50.2277 41.7668 49.9517 41.966Z" fill="#002236"></path><path d="M20.8264 61.8201C20.612 62.0497 20.4896 62.3713 20.4896 62.7081C20.4896 63.1673 20.6736 63.4121 22.0968 64.8361C22.9848 65.7241 23.704 66.5049 23.704 66.5817C23.704 66.6737 22.9848 67.4697 22.0968 68.3577C20.7648 69.7201 20.4896 70.0721 20.4896 70.4705C20.4896 70.7305 20.5352 71.0521 20.5816 71.1897C20.7344 71.5569 21.5304 71.9249 22.0056 71.8017C22.22 71.7561 23.1232 70.9905 24.0568 70.0721L25.7104 68.4337L27.3024 70.0721C28.236 71.0361 29.0784 71.7561 29.3232 71.8169C30.1648 72.0313 31.0528 71.1129 30.8384 70.2553C30.7616 69.9953 30.1032 69.1833 29.124 68.2041L27.5464 66.5961L29.184 64.9577C30.7304 63.3961 30.8224 63.2737 30.8224 62.6769C30.8224 61.8961 30.3632 61.4673 29.552 61.4673C29.0472 61.4673 28.8328 61.6201 27.3472 63.1057L25.6936 64.7433L24.04 63.1057C22.4784 61.5745 22.3256 61.4673 21.7592 61.4673C21.3312 61.4673 21.056 61.5593 20.8264 61.8201Z" fill="#002236"></path><path d="M49.5752 63.136C49.0088 63.6872 48.9936 64.2072 49.5136 64.82L49.9112 65.2944H54.3352H58.776L59.1432 64.912C59.6176 64.4528 59.648 63.6416 59.2352 63.136L58.9448 62.7688L54.4904 62.7232L50.02 62.6776L49.5752 63.136Z" fill="#EB0F20"></path><path d="M49.56 68.3409C49.3152 68.5857 49.116 68.9377 49.116 69.1217C49.116 69.5657 49.5144 70.2849 49.8048 70.4073C49.9424 70.4529 52.0248 70.4993 54.4128 70.4993H58.776L59.1432 70.1169C59.3728 69.8873 59.5264 69.5657 59.5264 69.2905C59.5264 67.9585 59.312 67.8977 54.2448 67.8977H50.004L49.56 68.3409Z" fill="#EB0F20"></path></svg>