<svg xmlns="http://www.w3.org/2000/svg" width="25" height="24" viewBox="0 0 25 24" fill="none"><g opacity="0.2" clip-path="url(#clip0_48_1193)"><path d="M12.5 24C12.3882 24 12.2765 23.9769 12.1727 23.9312L9.83281 22.8945C4.80883 20.6682 1.5625 15.7977 1.5625 10.4858V3.00004C1.5625 2.61881 1.86039 2.29804 2.25523 2.25476C3.79828 2.08556 5.34898 1.83761 6.86336 1.51759C8.67922 1.13381 10.4877 0.637612 12.2395 0.0428625C12.408 -0.0142875 12.592 -0.0142875 12.7605 0.0428625C14.5123 0.637612 16.3208 1.13381 18.1366 1.51759C19.651 1.83769 21.2016 2.08556 22.7447 2.25476C23.1395 2.29796 23.4374 2.61881 23.4374 3.00004V10.4858C23.4374 15.7977 20.1911 20.6683 15.1672 22.8945L12.8273 23.9312C12.7235 23.9769 12.6117 24 12.5 24ZM3.125 3.66431V10.4858C3.125 15.2147 6.015 19.5506 10.4873 21.5322L12.5 22.4239L14.5127 21.5322C18.985 19.5506 21.875 15.2147 21.875 10.4858V3.66431C20.5082 3.49436 19.141 3.26554 17.8009 2.98241C16.0126 2.60449 14.2304 2.12111 12.5 1.54466C10.7697 2.12111 8.98742 2.60449 7.19906 2.98241C5.85898 3.26546 4.4918 3.49436 3.125 3.66431Z" fill="#002236"></path><path d="M15.625 17.25H9.375C8.51328 17.25 7.8125 16.5773 7.8125 15.75V10.5C7.8125 9.67275 8.51328 9 9.375 9H15.625C16.4867 9 17.1875 9.67275 17.1875 10.5V15.75C17.1875 16.5773 16.4867 17.25 15.625 17.25ZM9.375 10.5V15.75H15.6262L15.625 10.5H9.375Z" fill="#002236"></path><path d="M14.8438 10.5H10.1562C9.72484 10.5 9.375 10.1642 9.375 9.75V8.25C9.375 6.5958 10.7769 5.25 12.5 5.25C14.2231 5.25 15.625 6.5958 15.625 8.25V9.75C15.625 10.1642 15.2752 10.5 14.8438 10.5ZM10.9375 9H14.0625V8.25C14.0625 7.42275 13.3617 6.75 12.5 6.75C11.6383 6.75 10.9375 7.42275 10.9375 8.25V9Z" fill="#002236"></path></g><defs><clipPath id="clip0_48_1193"><rect width="25" height="24" fill="white"></rect></clipPath></defs></svg>