<svg xmlns="http://www.w3.org/2000/svg" width="16" height="12" viewBox="0 0 16 12" fill="none"><path d="M15.6229 0.371073C15.12 -0.123691 14.3048 -0.123691 13.8019 0.371073L5.08571 8.94699L2.1981 6.10584C1.69524 5.61108 0.88 5.61108 0.377143 6.10584C-0.125714 6.60061 -0.125714 7.40272 0.377143 7.89749L4.17143 11.6307C4.50667 11.9606 4.99429 12.0805 5.45143 11.9456C5.55048 11.9156 5.64952 11.8781 5.74095 11.8256C5.75619 11.8181 5.77905 11.8031 5.79429 11.7881C5.87048 11.7432 5.93143 11.6832 5.99238 11.6232L15.6229 2.16272C16.1257 1.66796 16.1257 0.865838 15.6229 0.371073Z" fill="#EB0F20"></path></svg>